<svg xmlns="http://www.w3.org/2000/svg" xml:space="preserve" width="272.52539" height="145.71341" viewBox="0 0 272.52539 145.71341"><g style="stroke-width:.462251"><g style="stroke-width:.462251"><path d="M0 0v-6.552s4.942-4.238 21.779-5.646c0 0-22.687-1.01-34.283-11.092v-6.355S.706-17.543 32.569-17.543v11.596S8.27-7.763 0 0" style="fill:#fdd000;fill-opacity:1;fill-rule:nonzero;stroke:none;stroke-width:.462251" transform="matrix(2.88444 0 0 -2.88444 178.582 60.204)"></path></g><g style="stroke-width:.462251"><path d="M0 0v6.552C-8.268-1.211-32.569.602-32.569.602v-11.593c31.863 0 45.073-12.098 45.073-12.098v6.352C.908-6.656-21.779-5.646-21.779-5.646-4.942-4.238 0 0 0 0" style="fill:#fdd000;fill-opacity:1;fill-rule:nonzero;stroke:none;stroke-width:.462251" transform="matrix(2.88444 0 0 -2.88444 93.943 79.104)"></path></g><g style="stroke-width:.462251"><path d="M0 0h3.377v-9.632h-4.539v-11.322a2.091 2.091 0 1 1 4.183 0h.001v8.449h16.19v-8.434l-.002-.015a2.093 2.093 0 1 1 4.185 0v11.322h-4.539V0h3.377a1.765 1.765 0 1 1 0 3.529h-8.697v3.325a2.42 2.42 0 0 1-4.84 0V3.529H-.001A1.764 1.764 0 1 1 0 0m7.969.502h6.301v-.957H7.969Zm0-4.034h6.301v-.957H7.969Zm0-4.033h6.301v-.957H7.969Z" style="fill:#fdd000;fill-opacity:1;fill-rule:nonzero;stroke:none;stroke-width:.462251" transform="matrix(2.88444 0 0 -2.88444 104.198 26.747)"></path></g><path d="M212.372 102.933h-9.629v-6.742h9.629zm-2.801-4.208h-4.034v1.739h4.034z" style="fill:#fdd000;fill-opacity:1;fill-rule:nonzero;stroke:none;stroke-width:.462251" transform="matrix(2.88444 0 0 -2.88444 -462.418 367.763)"></path><g style="stroke-width:.462251"><path d="M0 0v-.452c0-.797.613-1.349 1.469-1.349.855 0 1.468.552 1.468 1.349V0c0 .789-.613 1.347-1.468 1.347C.613 1.347 0 .789 0 0m2.47-.026v-.396c0-.561-.41-.974-1.001-.974-.592 0-.995.413-.995.974v.396c0 .567.403.971.995.971.591 0 1.001-.404 1.001-.971" style="fill:#fdd000;fill-opacity:1;fill-rule:nonzero;stroke:none;stroke-width:.462251" transform="matrix(2.88444 0 0 -2.88444 130.083 101.498)"></path></g><g style="stroke-width:.462251"><path d="M0 0c-.468-.16-1.05-.225-1.689-.225h-2.475v-.41h2.444c.685 0 1.305.083 1.72.239v-1.311h.471v5.599H0Z" style="fill:#fdd000;fill-opacity:1;fill-rule:nonzero;stroke:none;stroke-width:.462251" transform="matrix(2.88444 0 0 -2.88444 141.114 108.55)"></path></g><g style="stroke-width:.462251"><path d="M0 0v5.599h-.471V4.417h-1.258c-.157.677-.61 1.072-1.31 1.072-.866 0-1.365-.635-1.365-1.662v-.995c0-1.028.499-1.663 1.365-1.663.731 0 1.189.434 1.329 1.172h1.239V0Zm-2.131 2.855c0-.812-.313-1.281-.908-1.281-.583 0-.902.469-.902 1.281v.939c0 .818.319 1.285.902 1.285.595 0 .908-.467.908-1.285zm.464-.112v1.084q.002.097-.006.189h1.202V2.743Z" style="fill:#fdd000;fill-opacity:1;fill-rule:nonzero;stroke:none;stroke-width:.462251" transform="matrix(2.88444 0 0 -2.88444 126.48 113.464)"></path></g><g style="stroke-width:.462251"><path d="M0 0h-2.203v1.471h1.701v.401h-3.3v2.129h3.173v.402h-3.63V1.471h1.588V0h-2.218v-.408H0Z" style="fill:#fdd000;fill-opacity:1;fill-rule:nonzero;stroke:none;stroke-width:.462251" transform="matrix(2.88444 0 0 -2.88444 159.144 110.73)"></path></g></g><style>@media (prefers-color-scheme: light) { :root { filter: contrast(1) brightness(1); } }
@media (prefers-color-scheme: dark) { :root { filter: none; } }
</style></svg>